<svg width="2165" height="2056" viewBox="0 0 2165 2056" fill="none" xmlns="http://www.w3.org/2000/svg">
<g filter="url(#filter0_d_50_50)">
<path d="M543.188 716.563H514.034C514.034 716.563 520.412 790.369 525.877 811.457C531.343 832.544 509.479 912.677 519.5 945.363C529.521 978.048 514.034 1027.6 514.034 1027.6L543.188 1021.28C549.262 1010.38 543.188 1010.52 543.188 1001.24L543.188 970.704C543.188 914.275 543.188 793.357 543.188 716.563Z" fill="#2A2A2A"/>
<path d="M1512.74 744.67H1542.72C1542.72 744.67 1536.16 810.251 1530.54 828.988C1524.92 847.725 1547.4 918.928 1537.1 947.971C1526.79 977.014 1542.72 1021.05 1542.72 1021.05L1512.74 1015.43C1506.49 1005.74 1512.74 1005.87 1512.74 997.625L1512.74 970.488C1512.74 920.348 1512.74 812.905 1512.74 744.67Z" fill="#2A2A2A"/>
<path d="M493.423 1013.55C506.539 1005.12 538.392 1013.55 538.392 1013.55C546.199 1122.85 561.815 1343.14 561.815 1349.89C561.815 1356.63 538.392 1332.09 530.898 1313.35C523.404 1294.61 525.275 1243.09 518.718 1205.61C512.16 1168.13 490.612 1140.41 484.054 1125.98C477.495 1111.55 484.054 1110.05 479.37 1083.82C474.685 1057.58 472.811 1049.15 473.749 1038.85C474.686 1028.54 480.307 1021.98 493.423 1013.55Z" fill="#EC8D4F"/>
<path d="M1558.65 1013.55C1545.53 1005.12 1513.68 1013.55 1513.68 1013.55C1505.87 1122.85 1490.26 1343.14 1490.26 1349.89C1490.26 1356.63 1513.68 1332.09 1521.17 1313.35C1528.67 1294.61 1526.79 1243.08 1533.35 1205.61C1539.91 1168.13 1561.46 1140.41 1568.02 1125.98C1574.57 1111.55 1568.02 1110.05 1572.7 1083.82C1577.38 1057.58 1579.26 1049.15 1578.32 1038.85C1577.38 1028.54 1571.76 1021.98 1558.65 1013.55Z" fill="#EC8D4F"/>
<path d="M624.362 497.64L543.08 732.862C543.08 732.862 541.242 926.692 531.228 1096.02C521.214 1265.35 583.199 1428.94 594.874 1456.25C606.55 1483.56 658.319 1603.54 764.418 1734.67C837.118 1824.52 864.785 1904.87 996.995 1924.48C1129.21 1944.09 1188.94 1874.19 1251.68 1794.55C1314.42 1714.92 1401.07 1590.28 1452.82 1489.64C1504.58 1389 1518.58 1235.06 1517.76 1177.58C1516.95 1120.11 1500.2 725.498 1500.2 725.498L1399.99 522.952L624.362 497.64Z" fill="#F0A675"/>
<path d="M540.578 699.568L997.874 439.814L1514.38 731.347L1514 1045.51L1356.57 918.292L1373.5 839.852C1373.5 839.852 1262.28 810.703 1240.11 801.388C1183.76 777.719 1161.14 831.292 1090.14 830.605C1024.47 829.969 935.639 816.099 875.694 827.978C791.909 844.582 726.889 808.459 669.132 831.228C662.534 833.829 606.002 867.766 606.002 867.766L622.664 907.332C622.664 907.332 577.469 927.633 563.427 934.604C548.647 941.941 540.601 946.419 540.601 946.419L540.578 699.568Z" fill="url(#paint0_linear_50_50)"/>
<path d="M953.703 994.908C953.703 994.908 943.252 1205.45 946.097 1227.98C948.941 1250.5 955.83 1258.8 973.418 1268.35C991.006 1277.9 1003.62 1242.42 1037.32 1240.82C1071.02 1239.23 1126.68 1267.07 1124.14 1301.09C1121.59 1335.11 1077.86 1358.8 1077.86 1358.8C1077.86 1358.8 1099.86 1339.78 1087.02 1319.62C1074.17 1299.46 1047.43 1303.97 1030.51 1317.78C1013.6 1331.58 1014.78 1361.23 984.68 1362.05C954.582 1362.86 951.679 1342.12 942.791 1329.27C933.903 1316.42 921.087 1314.2 911.074 1313.88C901.062 1313.55 887.385 1315.8 881.998 1327.29C876.611 1338.78 885.981 1358.82 885.981 1358.82C885.981 1358.82 856.631 1314.79 858.792 1292.43C860.954 1270.07 884.66 1245.71 896.032 1226.34C907.404 1206.97 953.703 994.908 953.703 994.908Z" fill="#F2965A"/>
<path d="M658.279 998.733C658.279 998.733 703.709 954.436 754.908 953.414C806.107 952.392 821.883 964.082 833.406 968.543C844.93 973.003 867.88 984.928 867.88 984.928C867.88 984.928 786.359 1007.4 758.503 1008.29C730.647 1009.17 658.279 998.733 658.279 998.733Z" fill="#F0F0F0"/>
<mask id="mask0_50_50" style="mask-type:alpha" maskUnits="userSpaceOnUse" x="658" y="952" width="210" height="57">
<path d="M658.243 999.832C658.243 999.832 703.722 954.054 754.923 952.945C806.125 951.835 821.889 963.887 833.408 968.48C844.928 973.072 867.865 985.359 867.865 985.359C867.865 985.359 787.257 1007.37 759.4 1008.32C731.542 1009.26 658.243 999.832 658.243 999.832Z" fill="#F0F0F0"/>
</mask>
<g mask="url(#mask0_50_50)">
<circle cx="759.806" cy="968.35" r="44.858" transform="rotate(1.86915 759.806 968.35)" fill="#CC8633"/>
<circle cx="759.79" cy="968.833" r="12.5602" transform="rotate(1.86915 759.79 968.833)" fill="#1A1A1A"/>
<mask id="mask1_50_50" style="mask-type:alpha" maskUnits="userSpaceOnUse" x="714" y="923" width="91" height="91">
<circle cx="759.807" cy="968.35" r="44.858" transform="rotate(1.86915 759.807 968.35)" fill="#CC8633"/>
</mask>
<g mask="url(#mask1_50_50)">
<path d="M715.483 951.23L805.152 954.156L804.508 973.884C804.508 973.884 775.99 967.567 759.849 967.04C743.709 966.514 714.84 970.957 714.84 970.957L715.483 951.23Z" fill="#1A1A1A"/>
</g>
</g>
<path d="M1134.18 986.941C1134.18 986.941 1194.07 947.519 1245.26 948.878C1296.45 950.237 1311.67 962.648 1322.97 967.639C1334.28 972.63 1350.47 986.28 1350.47 986.28C1350.47 986.28 1274.17 1004.27 1246.3 1003.86C1218.44 1003.45 1134.18 986.941 1134.18 986.941Z" fill="#F0F0F0"/>
<mask id="mask2_50_50" style="mask-type:alpha" maskUnits="userSpaceOnUse" x="1134" y="948" width="217" height="56">
<path d="M1134.18 986.941C1134.18 986.941 1194.07 947.519 1245.26 948.878C1296.45 950.237 1311.67 962.648 1322.97 967.639C1334.28 972.63 1350.47 986.28 1350.47 986.28C1350.47 986.28 1274.17 1004.27 1246.3 1003.86C1218.44 1003.45 1134.18 986.941 1134.18 986.941Z" fill="#F0F0F0"/>
</mask>
<g mask="url(#mask2_50_50)">
<circle cx="1250.08" cy="963.29" r="44.858" transform="rotate(1.86915 1250.08 963.29)" fill="#CC8633"/>
<circle cx="1250.07" cy="963.774" r="12.5602" transform="rotate(1.86915 1250.07 963.774)" fill="#1A1A1A"/>
<mask id="mask3_50_50" style="mask-type:alpha" maskUnits="userSpaceOnUse" x="1205" y="918" width="90" height="91">
<circle cx="1250.08" cy="963.29" r="44.858" transform="rotate(1.86915 1250.08 963.29)" fill="#CC8633"/>
</mask>
<g mask="url(#mask3_50_50)">
<path d="M1205.08 949.303L1294.73 945.967L1295.46 965.691C1295.46 965.691 1266.57 961.379 1250.44 961.979C1234.3 962.58 1205.81 969.027 1205.81 969.027L1205.08 949.303Z" fill="#1A1A1A"/>
</g>
</g>
<path d="M605.193 865.047L682.992 819.114L873.458 841.487L868.718 986.75L658.279 998.733L605.193 865.047Z" fill="url(#paint1_linear_50_50)"/>
<path d="M1107.99 833.881L1294.95 798.691L1372.51 842.514L1348.72 966.509L1137.12 986.533L1107.99 833.881Z" fill="url(#paint2_linear_50_50)"/>
<path d="M858.4 807.783C875.057 819.995 883.721 857.081 883.721 857.081C883.721 857.081 853.584 845.326 816.879 842.333C780.174 839.34 672.513 837.622 644.306 849.268C616.099 860.915 592.259 876.294 592.259 876.294C592.259 876.294 635.116 828.322 673.537 806.238C711.959 784.153 841.744 795.57 858.4 807.783Z" fill="#1A1A1A"/>
<path d="M1119.56 792.911C1103.48 805.868 1096.51 843.309 1096.51 843.309C1096.51 843.309 1126.08 830.197 1162.61 825.54C1199.14 820.883 1306.61 814.277 1335.32 824.63C1364.02 834.983 1388.54 849.264 1388.54 849.264C1388.54 849.264 1343.55 803.289 1304.16 782.972C1264.78 762.655 1135.65 779.954 1119.56 792.911Z" fill="#1A1A1A"/>
<path d="M1523.98 744.67L1494 714.689C1494 714.689 1500.56 810.25 1506.18 828.988C1511.8 847.725 1489.32 918.928 1499.62 947.971C1509.93 977.014 1513.68 1015.43 1513.68 1015.43L1522.11 966.708C1522.89 965.498 1523.5 965.202 1523.98 965.595C1523.98 967.28 1523.98 968.912 1523.98 970.488L1523.98 997.625C1523.98 1004.84 1527.33 968.343 1523.98 965.595C1523.98 913.634 1523.98 810.761 1523.98 744.67Z" fill="#2A2A2A"/>
<path d="M533.597 705.321H562.751C562.751 705.321 556.373 779.127 550.908 800.215C545.442 821.302 567.306 901.435 557.285 934.121C547.264 966.806 535.582 1012.62 535.582 1012.62L533.597 1010.04C527.523 999.141 533.597 999.281 533.597 990.003L533.597 959.462C533.597 903.033 533.597 782.115 533.597 705.321Z" fill="#2A2A2A"/>
<path d="M1561.45 741.206C1561.58 668.458 1550.6 552.863 1523.78 485.606C1496.95 418.349 1457.57 357.211 1407.89 305.684C1358.2 254.157 1299.18 213.25 1234.19 185.298C1169.2 157.346 1099.52 142.896 1029.12 142.775C958.727 142.653 888.996 156.861 823.911 184.588C758.826 212.315 699.661 253.018 649.795 304.373C599.929 355.727 560.339 416.728 533.283 483.892C506.228 551.056 492.238 623.068 492.112 695.816C492.112 695.816 641.999 587.69 743.351 554.516C844.703 521.342 928.088 510.37 1028.48 513.322C1128.87 516.275 1181.16 536.384 1276.69 571.187C1410.17 619.818 1561.45 741.206 1561.45 741.206Z" fill="#F58F15"/>
<path d="M411.259 758.953C422.957 739.235 493.041 678.349 493.041 678.349C493.041 678.349 699.695 501.069 1028.06 501.637C1356.42 502.205 1562.38 725.058 1562.38 725.058C1562.38 725.058 1632.28 769.14 1635.84 787.986C1635.84 787.986 1627.72 813.99 1617.85 810.384C1607.99 806.778 1341.01 593.689 1019.37 593.133C697.742 592.576 445.308 784.132 430.049 788.591C414.789 793.051 399.562 778.67 411.259 758.953Z" fill="#E27D03"/>
<path d="M1020.72 282.305L1032.66 282.326C1034.65 282.329 1035.65 283.279 1035.64 285.174L1035.53 350.56C1035.52 357.951 1033.47 363.681 1029.39 367.749C1025.31 371.722 1019.57 373.702 1012.18 373.689L997.963 373.664C990.477 373.652 984.7 371.652 980.632 367.664C976.564 363.677 974.537 357.941 974.55 350.455L974.573 337.093C974.576 335.103 975.573 334.11 977.563 334.113L989.645 334.134C991.635 334.138 992.629 335.134 992.625 337.124L992.603 349.633C992.598 352.665 993.21 354.846 994.44 356.175C995.765 357.409 997.896 358.029 1000.83 358.034L1009.22 358.048C1012.25 358.053 1014.39 357.441 1015.62 356.211C1016.85 354.887 1017.47 352.708 1017.48 349.676L1017.59 285.285C1017.59 283.295 1018.64 282.302 1020.72 282.305Z" fill="white"/>
<path d="M1029.39 367.749L1030.29 368.677L1030.3 368.672L1030.3 368.666L1029.39 367.749ZM980.632 367.664L979.725 368.59L980.632 367.664ZM994.44 356.175L993.489 357.055L993.522 357.09L993.557 357.123L994.44 356.175ZM1015.62 356.211L1016.53 357.129L1016.55 357.112L1016.57 357.095L1015.62 356.211ZM1020.72 283.601L1032.66 283.622L1032.66 281.03L1020.72 281.01L1020.72 283.601ZM1032.66 283.622C1033.47 283.623 1033.84 283.818 1034 283.977C1034.16 284.125 1034.35 284.44 1034.35 285.172L1036.94 285.176C1036.94 284.012 1036.63 282.905 1035.79 282.104C1034.97 281.314 1033.84 281.032 1032.66 281.03L1032.66 283.622ZM1034.35 285.172L1034.23 350.558L1036.82 350.562L1036.94 285.176L1034.35 285.172ZM1034.23 350.558C1034.22 357.707 1032.25 363.069 1028.47 366.831L1030.3 368.666C1034.69 364.293 1036.81 358.196 1036.82 350.562L1034.23 350.558ZM1028.48 366.82C1024.71 370.493 1019.34 372.406 1012.18 372.393L1012.18 374.985C1019.8 374.998 1025.9 372.95 1030.29 368.677L1028.48 366.82ZM1012.18 372.393L997.966 372.369L997.961 374.96L1012.18 374.985L1012.18 372.393ZM997.966 372.369C990.708 372.356 985.297 370.422 981.539 366.739L979.725 368.59C984.103 372.881 990.247 374.947 997.961 374.96L997.966 372.369ZM981.539 366.739C977.792 363.066 975.833 357.708 975.845 350.457L973.254 350.452C973.241 358.173 975.337 364.289 979.725 368.59L981.539 366.739ZM975.845 350.457L975.868 337.095L973.277 337.091L973.254 350.452L975.845 350.457ZM975.868 337.095C975.87 336.3 976.068 335.942 976.238 335.773C976.407 335.605 976.765 335.407 977.561 335.409L977.565 332.818C976.371 332.816 975.236 333.113 974.408 333.938C973.581 334.763 973.279 335.896 973.277 337.091L975.868 337.095ZM977.561 335.409L989.643 335.43L989.647 332.838L977.565 332.818L977.561 335.409ZM989.643 335.43C990.438 335.431 990.796 335.63 990.965 335.799C991.134 335.968 991.331 336.327 991.33 337.122L993.921 337.126C993.923 335.932 993.625 334.797 992.8 333.97C991.976 333.142 990.842 332.841 989.647 332.838L989.643 335.43ZM991.33 337.122L991.308 349.631L993.899 349.635L993.921 337.126L991.33 337.122ZM991.308 349.631C991.302 352.784 991.929 355.368 993.489 357.055L995.391 355.295C994.492 354.323 993.894 352.547 993.899 349.635L991.308 349.631ZM993.557 357.123C995.232 358.683 997.759 359.324 1000.83 359.329L1000.84 356.738C998.032 356.733 996.297 356.135 995.323 355.227L993.557 357.123ZM1000.83 359.329L1009.22 359.344L1009.22 356.753L1000.84 356.738L1000.83 359.329ZM1009.22 359.344C1012.36 359.349 1014.93 358.728 1016.53 357.129L1014.7 355.294C1013.84 356.154 1012.15 356.758 1009.22 356.753L1009.22 359.344ZM1016.57 357.095C1018.13 355.414 1018.77 352.832 1018.77 349.678L1016.18 349.674C1016.18 352.585 1015.57 354.36 1014.67 355.328L1016.57 357.095ZM1018.77 349.678L1018.89 285.287L1016.29 285.283L1016.18 349.674L1018.77 349.678ZM1018.89 285.287C1018.89 284.508 1019.09 284.157 1019.27 283.986C1019.46 283.804 1019.86 283.599 1020.72 283.601L1020.72 281.01C1019.5 281.008 1018.34 281.298 1017.48 282.109C1016.62 282.931 1016.3 284.072 1016.29 285.283L1018.89 285.287Z" fill="#EEEEEE"/>
<mask id="mask4_50_50" style="mask-type:alpha" maskUnits="userSpaceOnUse" x="796" y="1497" width="398" height="164">
<path d="M984.065 1660.51C1007.38 1661.27 1054.93 1661.92 1094.02 1647.04C1133.1 1632.16 1193.95 1568.62 1193.95 1568.62L1176.91 1555.14L988.027 1539.1L891.42 1528.77L796.748 1569.12C796.748 1569.12 842.983 1624.82 887.662 1643.9C922.559 1658.79 960.751 1659.75 984.065 1660.51Z" fill="url(#paint3_linear_50_50)"/>
<path d="M984.478 1510.26C1000.62 1510.79 1048.59 1493.8 1084.48 1499.16C1122.89 1504.9 1190.9 1566.37 1190.9 1566.37C1190.9 1566.37 1096.98 1556.12 1066.5 1555.12C1036.01 1554.13 1034.7 1566.65 978.123 1567.5C936.992 1562.57 905.069 1553.85 897.801 1553.21C881.689 1551.79 797.626 1569.69 797.626 1569.69C797.626 1569.69 848.829 1502.6 899.615 1497.62C932.923 1494.34 968.337 1509.73 984.478 1510.26Z" fill="url(#paint4_linear_50_50)"/>
</mask>
<g mask="url(#mask4_50_50)">
<path d="M984.065 1660.51C1007.38 1661.27 1054.93 1661.92 1094.02 1647.04C1133.1 1632.16 1193.95 1568.62 1193.95 1568.62L1176.91 1555.14L988.027 1539.1L891.42 1528.77L796.748 1569.12C796.748 1569.12 842.983 1624.82 887.662 1643.9C922.559 1658.79 960.751 1659.75 984.065 1660.51Z" fill="#EB805E"/>
<path d="M984.478 1510.26C1000.62 1510.79 1048.59 1493.8 1084.48 1499.16C1122.89 1504.9 1190.9 1566.37 1190.9 1566.37C1190.9 1566.37 1096.98 1556.12 1066.5 1555.12C1036.01 1554.13 1034.7 1566.65 978.123 1567.5C936.992 1562.57 905.069 1553.85 897.801 1553.21C881.689 1551.79 797.626 1569.69 797.626 1569.69C797.626 1569.69 848.829 1502.6 899.615 1497.62C932.923 1494.34 968.337 1509.73 984.478 1510.26Z" fill="#DB7453"/>
<path d="M796.761 1568.76C796.761 1568.76 864.889 1554.12 891.407 1553.9C917.926 1553.68 954.039 1567.61 983.291 1567.67C1012.54 1567.73 1044.94 1555.32 1071.46 1555.29C1097.97 1555.25 1193.59 1566.45 1193.59 1566.45" stroke="#222222" stroke-opacity="0.2" stroke-width="5.18232"/>
</g>
</g>
<defs>
<filter id="filter0_d_50_50" x="316.424" y="77.9949" width="1410.1" height="1966.42" filterUnits="userSpaceOnUse" color-interpolation-filters="sRGB">
<feFlood flood-opacity="0" result="BackgroundImageFix"/>
<feColorMatrix in="SourceAlpha" type="matrix" values="0 0 0 0 0 0 0 0 0 0 0 0 0 0 0 0 0 0 127 0" result="hardAlpha"/>
<feOffset dy="25.9116"/>
<feGaussianBlur stdDeviation="45.3453"/>
<feComposite in2="hardAlpha" operator="out"/>
<feColorMatrix type="matrix" values="0 0 0 0 0 0 0 0 0 0 0 0 0 0 0 0 0 0 0.15 0"/>
<feBlend mode="normal" in2="BackgroundImageFix" result="effect1_dropShadow_50_50"/>
<feBlend mode="normal" in="SourceGraphic" in2="effect1_dropShadow_50_50" result="shape"/>
</filter>
<linearGradient id="paint0_linear_50_50" x1="1044.95" y1="441.35" x2="1025.69" y2="1031.37" gradientUnits="userSpaceOnUse">
<stop stop-color="#CC8633"/>
<stop offset="1" stop-color="#F0A675"/>
</linearGradient>
<linearGradient id="paint1_linear_50_50" x1="766.753" y1="838.005" x2="761.398" y2="1002.1" gradientUnits="userSpaceOnUse">
<stop stop-color="#EB8847"/>
<stop offset="1" stop-color="#F0A675" stop-opacity="0"/>
</linearGradient>
<linearGradient id="paint2_linear_50_50" x1="1246.75" y1="817.764" x2="1241.4" y2="981.857" gradientUnits="userSpaceOnUse">
<stop stop-color="#EB8847"/>
<stop offset="1" stop-color="#F0A675" stop-opacity="0"/>
</linearGradient>
<linearGradient id="paint3_linear_50_50" x1="996.799" y1="1660.97" x2="994.938" y2="1542.63" gradientUnits="userSpaceOnUse">
<stop stop-color="#AE5642"/>
<stop offset="1" stop-color="#C95D45"/>
</linearGradient>
<linearGradient id="paint4_linear_50_50" x1="994.052" y1="1496.91" x2="994.266" y2="1569.11" gradientUnits="userSpaceOnUse">
<stop stop-color="#C95D45"/>
<stop offset="1" stop-color="#AE5642"/>
</linearGradient>
</defs>
</svg>
